<?xml version="1.0" encoding="utf-8"?>
<!-- Generator: Adobe Illustrator 24.0.0, SVG Export Plug-In . SVG Version: 6.00 Build 0)  -->
<svg version="1.1" xmlns="http://www.w3.org/2000/svg" xmlns:xlink="http://www.w3.org/1999/xlink" x="0px" y="0px"
	 viewBox="0 0 2000 2000" style="enable-background:new 0 0 2000 2000;" xml:space="preserve">
<style type="text/css">
	.st0{fill:#FFFFFF;}
	.st1{fill:#9192FF;}
	.st2{fill:#EBEBFF;}
	.st3{clip-path:url(#SVGID_2_);fill:#FFFFFF;}
	.st4{clip-path:url(#SVGID_2_);fill:#D1D1FF;}
	.st5{opacity:0.8;clip-path:url(#SVGID_2_);}
	.st6{clip-path:url(#SVGID_2_);}
	.st7{opacity:0.7;fill:#FFF2E0;}
	.st8{fill:#FFA121;}
	.st9{opacity:0.4;fill:#FFFFFF;}
	.st10{fill:#D1D1FF;}
	.st11{fill:#3335CF;}
	.st12{fill:#1B1B43;}
	.st13{fill:#C5C5FF;}
	.st14{fill:#FFBC96;}
	.st15{fill:#D28572;}
	.st16{fill:#26289C;}
	.st17{opacity:0.3;fill:#1B1B43;}
	.st18{opacity:0.2;fill:#FE5B52;}
</style>
<g id="BACKGROUND">
	<rect class="st0" width="2000" height="2000"/>
</g>
<g id="OBJECTS">
	<g>
		<g>
			<path class="st1" d="M590.91,1138.43l-1.73-1.81l10.85-10.35l1.73,1.81L590.91,1138.43z M612.59,1117.66l-1.76-1.78
				c3.53-3.47,7.06-7.05,10.52-10.65l1.8,1.73C619.68,1110.57,616.13,1114.17,612.59,1117.66z M633.42,1095.98l-1.85-1.68
				c3.32-3.64,6.66-7.41,9.93-11.2l1.89,1.64C640.1,1088.54,636.75,1092.32,633.42,1095.98z M653.07,1073.23l-1.93-1.59
				c3.12-3.8,6.27-7.73,9.35-11.68l1.97,1.54C659.36,1065.47,656.2,1069.42,653.07,1073.23z M671.57,1049.55l-2-1.49
				c2.93-3.94,5.9-8.02,8.8-12.11l2.04,1.45C677.49,1041.5,674.52,1045.59,671.57,1049.55z M688.97,1025.04l-2.07-1.4
				c2.8-4.13,5.56-8.29,8.27-12.48l2.1,1.36C694.55,1016.72,691.78,1020.9,688.97,1025.04z M825.94,1007.71
				c-4.61,0-9.27-0.89-13.47-2.57l0.93-2.32c3.91,1.56,8.24,2.39,12.54,2.39c0.62-0.06,1.08-0.01,1.62-0.04l0.12,2.5
				C827.1,1007.7,826.41,1007.66,825.94,1007.71z M842.54,1003.44l-1.25-2.16c4.12-2.38,7.56-5.86,9.97-10.07l2.17,1.24
				C850.8,997.04,847.04,1000.84,842.54,1003.44z M705.31,999.83l-2.12-1.32c2.63-4.24,5.22-8.51,7.77-12.8l2.15,1.28
				C710.55,991.29,707.95,995.58,705.31,999.83z M799.8,996.35c-3.36-3.62-6.13-7.98-8.23-12.97l2.3-0.97
				c1.98,4.72,4.59,8.83,7.76,12.24L799.8,996.35z M857.57,977.55l-2.5-0.05l0.01-0.67c0-3.75-0.76-7.42-2.21-10.62
				c-0.38-0.84-0.79-1.65-1.24-2.44l2.18-1.23c0.49,0.86,0.94,1.74,1.34,2.64c1.59,3.52,2.43,7.55,2.43,11.65L857.57,977.55z
				 M721.66,974.93l-1.92-1.61c3.24-3.87,6.83-7.51,10.65-10.82l1.64,1.89C728.31,967.61,724.82,971.16,721.66,974.93z
				 M787.7,968.58c-0.28-2.37-0.43-4.8-0.43-7.23c0-2.65,0.17-5.35,0.51-8.03l2.48,0.31c-0.33,2.58-0.49,5.18-0.49,7.72
				c0,2.33,0.14,4.66,0.41,6.93L787.7,968.58z M743.95,955.64l-1.32-2.13c4.24-2.63,8.77-4.98,13.46-7l0.99,2.3
				C752.51,950.78,748.09,953.08,743.95,955.64z M842.01,953.06c-3.64-2.77-7.94-5.16-12.77-7.11l0.93-2.32
				c5.05,2.03,9.54,4.54,13.35,7.44L842.01,953.06z M771.07,943.93l-0.66-2.41c4.88-1.33,9.89-2.32,14.88-2.94l0.31,2.48
				C780.73,941.67,775.84,942.64,771.07,943.93z M815.08,941.86c-4.74-0.9-9.68-1.42-14.7-1.54l0.06-2.5
				c5.15,0.13,10.23,0.66,15.1,1.59L815.08,941.86z M793.71,939.33l-2.35-0.84c1.71-4.74,3.93-9.36,6.6-13.73l2.13,1.31
				C797.51,930.29,795.36,934.75,793.71,939.33z M809,914.33l-1.83-1.7c0.73-0.78,1.47-1.55,2.24-2.31
				c2.79-2.77,5.87-5.39,9.15-7.78l1.48,2.02c-3.18,2.33-6.16,4.86-8.87,7.55C810.42,912.83,809.7,913.58,809,914.33z M832.66,896.9
				l-1.11-2.24c4.52-2.24,9.27-4.13,14.12-5.61l0.73,2.39C841.67,892.89,837.05,894.72,832.66,896.9z M860.86,887.72l-0.62-2.42
				c4.89-1.25,9.75-2.56,14.45-3.9l0.68,2.4C870.65,885.15,865.77,886.46,860.86,887.72z M889.78,879.5l-0.75-2.39
				c4.82-1.52,9.6-3.1,14.2-4.71l0.83,2.36C899.43,876.38,894.63,877.97,889.78,879.5z M918.17,869.57l-0.9-2.33
				c4.68-1.82,9.34-3.72,13.84-5.66l0.99,2.29C927.56,865.83,922.88,867.74,918.17,869.57z M945.79,857.64l-1.08-2.25l13.49-6.55
				l1.09,2.25L945.79,857.64z M972.78,844.53l-1.09-2.25l13.49-6.56l1.09,2.25L972.78,844.53z M999.76,831.41l-1.09-2.25l13.49-6.56
				l1.09,2.25L999.76,831.41z M1026.74,818.29l-1.09-2.25l13.49-6.56l1.09,2.25L1026.74,818.29z M1053.72,805.18l-1.09-2.25
				l13.49-6.56l1.09,2.25L1053.72,805.18z"/>
			<path class="st2" d="M1007.63,340.29c0,0.52,0,1.01,0.06,1.53h328.77c-0.85-27.1-24.45-48.83-53.38-48.83
				c-9.28,0-17.98,2.23-25.58,6.13c0.4-21.09-9.74-41.29-28.41-52.13c-28.02-16.24-64.67-5.22-81.83,24.63
				c-5.16,9-8,18.68-8.64,28.29c-13.67-6.26-30.61-9.98-48.99-9.98C1044.34,289.93,1007.63,312.49,1007.63,340.29z"/>
			<path class="st1" d="M460.66,1108.54h-271.1l0.03-0.97c0.72-22.94,20.34-40.91,44.66-40.91c6.94,0,13.82,1.54,20.01,4.45
				c0.18-17.56,9.18-33.55,23.75-42c10.85-6.29,23.68-7.91,36.12-4.57c13.55,3.63,24.98,12.54,32.19,25.09
				c4,6.98,6.38,14.45,7.09,22.24c11.55-5.05,25.1-7.71,39.3-7.71c37.56,0,68.11,18.93,68.11,42.19c0,0.46,0,0.9-0.06,1.36
				L460.66,1108.54z M191.51,1106.67h267.43c0-0.1,0-0.21,0-0.31c0-22.23-29.71-40.31-66.24-40.31c-14.43,0-28.17,2.8-39.74,8.09
				l-1.24,0.57l-0.09-1.35c-0.53-7.99-2.87-15.65-6.95-22.77c-6.96-12.11-17.99-20.71-31.05-24.21
				c-11.96-3.21-24.28-1.65-34.69,4.38c-14.4,8.35-23.14,24.4-22.81,41.87l0.03,1.57l-1.4-0.72c-6.27-3.22-13.36-4.92-20.52-4.92
				C211.29,1068.54,192.71,1085.21,191.51,1106.67z"/>
		</g>
		<g>
			<g>
				<defs>
					<path id="SVGID_1_" d="M990.78,1081.54c0,31.95,25.9,57.85,57.85,57.85h642.57c31.95,0,57.85-25.9,57.85-57.85V690.58H990.78
						V1081.54z"/>
				</defs>
				<clipPath id="SVGID_2_">
					<use xlink:href="#SVGID_1_"  style="overflow:visible;"/>
				</clipPath>
				<path class="st3" d="M990.78,1081.54c0,31.95,25.9,57.85,57.85,57.85h642.57c31.95,0,57.85-25.9,57.85-57.85V690.58H990.78
					V1081.54z"/>
				<path class="st4" d="M951.1,790.27c8.86-28.42,36.91-50.23,67.54-52.54c30.64-2.31,61.91,15.03,75.32,41.77
					c16.3-0.15,32.37,8.89,40.29,22.67c7.92,13.78,7.36,31.72-1.4,44.99c19.42,3.36,36.84,16.14,45.43,33.3
					c8.59,17.16,8.12,38.28-1.22,55.04c21.37-10.86,48.69-9.87,69.19,2.5c20.5,12.38,33.42,35.68,32.7,59.02
					c13.31-20.88,38.83-33.89,64.2-32.73c25.37,1.16,49.56,16.43,60.84,38.43c11.91-35.64,43.67-64.4,81.24-73.6
					c37.58-9.19,79.73,1.49,107.85,27.33c42.29,6.62,73.12,52.54,62.1,92.51c22.85,18.91,34.52,49.64,29.75,78.31
					c-4.78,28.66-25.84,54.26-53.66,65.21l-727.69-0.47l-62.03-277.63L951.1,790.27z"/>
				<g class="st5">
					<path class="st0" d="M939.56,882.47c8.59-28.43,35.7-50.26,65.3-52.6c29.6-2.33,59.8,14.98,72.73,41.71
						c15.75-0.16,31.27,8.86,38.91,22.64c7.64,13.77,7.09,31.72-1.39,44.99c18.76,3.35,35.58,16.11,43.87,33.27
						c8.29,17.16,7.82,38.27-1.22,55.04c20.65-10.88,47.05-9.91,66.85,2.45c19.8,12.36,32.26,35.66,31.55,58.99
						c12.87-20.89,37.54-33.92,62.05-32.78c24.51,1.14,47.86,16.39,58.75,38.38c11.53-35.64,42.24-64.44,78.55-73.66
						c36.31-9.22,77.03,1.43,104.18,27.25c40.85,6.58,70.6,52.48,59.92,92.46c22.06,18.89,33.32,49.61,28.68,78.28
						c-4.64,28.67-25.01,54.28-51.89,65.25l-703.05,0.11l-59.71-277.58L939.56,882.47z"/>
				</g>
				<g class="st6">
					<path class="st7" d="M1498.5,703.09c-210.61,198.06-359.96,251.46-548.11,270.56l-12.5,200l197.5,67.5
						c172.5-5,338.13-254.72,440.44-468.95L1498.5,703.09"/>
					<path class="st8" d="M1528.16,705.67c-34.24,40.51-85.88,79.26-146.79,131.6l83.11-33.87c-10.19,16.89-25.03,40.52-33.35,50.66
						c19.15-8.84,49.98-28.29,60.19-38.61c-0.01,14.39-17.34,38.46-24.9,51.61c44.33-37.94,84.65-84.25,97.68-124.94L1528.16,705.67
						"/>
					<path class="st9" d="M1537.87,707.72c-20.25,26.85-50.57,52.73-86.4,87.59l48.5-23.01c-6.08,11.15-14.92,26.76-19.84,33.48
						c11.19-5.98,29.25-19.02,35.27-25.87c-0.15,9.41-10.44,25.34-14.96,34.02c26.07-25.27,49.91-55.98,57.88-82.73L1537.87,707.72"
						/>
				</g>
				<path class="st4" d="M1223.38,845.31c0.27,6.26-0.01,16.83-6.26,20.45c-10.44,6.05-18.66-8.63-22.49-16.01
					c-4.57-8.81-3.4-19.74,6.94-23.67C1215.23,820.9,1222.88,833.63,1223.38,845.31z"/>
				<path class="st4" d="M1718.5,1035.42c0.27,6.26-0.01,16.83-6.26,20.45c-10.44,6.05-18.66-8.63-22.49-16.01
					c-4.57-8.81-3.4-19.74,6.94-23.67C1710.35,1011.01,1718,1023.74,1718.5,1035.42z"/>
				<circle class="st4" cx="1167.89" cy="774.48" r="8.75"/>
				
					<ellipse transform="matrix(0.8955 -0.4451 0.4451 0.8955 -246.4298 815.2778)" class="st4" cx="1612.89" cy="932.4" rx="13.32" ry="13.32"/>
			</g>
			<g>
				<path class="st1" d="M1691.2,1140.64h-642.57c-32.59,0-59.1-26.51-59.1-59.1V689.33h760.77v392.21
					C1750.3,1114.12,1723.79,1140.64,1691.2,1140.64z M992.03,691.83v389.71c0,31.21,25.39,56.6,56.6,56.6h642.57
					c31.21,0,56.6-25.39,56.6-56.6V691.83H992.03z"/>
				<g>
					<path class="st0" d="M1691.2,539.11h-642.57c-31.95,0-57.85,25.89-57.85,57.85v93.62h758.27v-93.62
						C1749.05,565,1723.15,539.11,1691.2,539.11z"/>
					<path class="st1" d="M1750.3,691.83H989.53v-94.87c0-32.59,26.51-59.1,59.1-59.1h642.57c32.59,0,59.1,26.51,59.1,59.1V691.83z
						 M992.03,689.33h755.77v-92.37c0-31.21-25.39-56.6-56.6-56.6h-642.57c-31.21,0-56.6,25.39-56.6,56.6V689.33z"/>
				</g>
				<g>
					
						<ellipse transform="matrix(0.1989 -0.98 0.98 0.1989 252.3444 1538.3956)" class="st10" cx="1067.17" cy="614.85" rx="31.72" ry="31.72"/>
					<g>
						
							<ellipse transform="matrix(0.7071 -0.7071 0.7071 0.7071 -94.8328 1000.7441)" class="st0" cx="1160.59" cy="614.85" rx="31.72" ry="31.72"/>
						<path class="st1" d="M1160.59,647.81c-18.18,0-32.97-14.79-32.97-32.97c0-18.18,14.79-32.97,32.97-32.97
							s32.97,14.79,32.97,32.97C1193.55,633.02,1178.77,647.81,1160.59,647.81z M1160.59,584.38c-16.8,0-30.47,13.67-30.47,30.47
							s13.67,30.47,30.47,30.47s30.47-13.67,30.47-30.47S1177.39,584.38,1160.59,584.38z"/>
					</g>
					<g>
						<path class="st0" d="M1402.03,645.12h-126.28c-16.72,0-30.27-13.55-30.27-30.27v0c0-16.72,13.55-30.27,30.27-30.27h126.28
							c16.72,0,30.27,13.55,30.27,30.27v0C1432.3,631.56,1418.75,645.12,1402.03,645.12z"/>
						<path class="st1" d="M1402.03,646.37h-126.28c-17.38,0-31.52-14.14-31.52-31.52c0-17.38,14.14-31.52,31.52-31.52h126.28
							c17.38,0,31.52,14.14,31.52,31.52C1433.55,632.23,1419.41,646.37,1402.03,646.37z M1275.74,585.82
							c-16,0-29.02,13.02-29.02,29.02s13.02,29.02,29.02,29.02h126.28c16,0,29.02-13.02,29.02-29.02s-13.02-29.02-29.02-29.02
							H1275.74z"/>
					</g>
				</g>
			</g>
			<g>
				<g>
					<path class="st11" d="M1659.75,470.11c-50.64,44.33-137.98,13.77-165.12,49.17l77.55,61.41L1659.75,470.11z"/>
					<path class="st10" d="M1494.63,519.28L1494.63,519.28c-3.88,10.33-1.78,21.95,5.48,30.26l54.95,62.94l17.12-31.79
						L1494.63,519.28z"/>
				</g>
				<g>
					<path class="st11" d="M1774.53,561c-31.54,59.45,18.22,137.46-10.02,171.99l-77.55-61.41L1774.53,561z"/>
					<path class="st10" d="M1764.51,732.99L1764.51,732.99c-9.16,6.14-20.96,6.76-30.71,1.6l-73.86-39.06l27.02-23.95
						L1764.51,732.99z"/>
				</g>
				<polygon class="st12" points="1813.93,393.92 1744.88,419.26 1805.08,466.93 				"/>
				<path class="st13" d="M1805.08,466.93c-9.65,109.25-90.37,211.2-188.42,267.82l-89.35-70.68
					c37.49-117.95,107.31-202.36,217.56-244.82L1805.08,466.93z"/>
				<polygon class="st11" points="1527.32,664.08 1488.56,690.91 1599.41,778.69 1616.66,734.76 				"/>
				<g>
					
						<ellipse transform="matrix(0.993 -0.1181 0.1181 0.993 -48.6434 206.5385)" class="st0" cx="1718.96" cy="513.84" rx="41.47" ry="41.47"/>
					<path class="st1" d="M1722.09,543.23l-0.26-2.49c2.38-0.25,4.71-0.82,6.95-1.69l0.9,2.33
						C1727.25,542.33,1724.69,542.95,1722.09,543.23z M1714.29,543.03c-2.59-0.41-5.1-1.16-7.48-2.24l1.03-2.28
						c2.18,0.98,4.48,1.67,6.84,2.05L1714.29,543.03z M1736.52,537.62l-1.48-2.01c1.91-1.42,3.64-3.09,5.13-4.97l1.96,1.55
						C1740.5,534.25,1738.62,536.08,1736.52,537.62z M1700.18,536.66c-2.03-1.67-3.82-3.59-5.33-5.71l2.04-1.45
						c1.38,1.94,3.02,3.7,4.88,5.23L1700.18,536.66z M1745.18,527.49l-2.22-1.15c1.1-2.12,1.92-4.38,2.43-6.72l2.44,0.53
						C1747.28,522.7,1746.39,525.17,1745.18,527.49z M1691.22,524.05c-0.9-2.45-1.47-5.01-1.7-7.62l2.49-0.22
						c0.21,2.39,0.73,4.74,1.56,6.98L1691.22,524.05z M1745.98,512.49c-0.12-2.4-0.56-4.76-1.3-7.03l2.38-0.77
						c0.81,2.48,1.28,5.06,1.42,7.67L1745.98,512.49z M1692.32,509.07l-2.46-0.44c0.46-2.58,1.26-5.08,2.38-7.44l2.26,1.07
						C1693.48,504.42,1692.74,506.71,1692.32,509.07z M1741.6,499.01c-1.31-1.99-2.88-3.81-4.68-5.41l1.66-1.87
						c1.96,1.74,3.68,3.73,5.11,5.91L1741.6,499.01z M1698.39,496.26l-1.9-1.62c1.7-1.99,3.65-3.75,5.81-5.22l1.41,2.07
						C1701.74,492.83,1699.95,494.44,1698.39,496.26z M1731,489.61c-2.14-1.07-4.42-1.84-6.76-2.3l0.48-2.45
						c2.56,0.51,5.05,1.36,7.39,2.52L1731,489.61z M1710.09,488.28l-0.82-2.36c2.46-0.85,5.04-1.38,7.65-1.56l0.18,2.5
						C1714.71,487.02,1712.35,487.5,1710.09,488.28z"/>
				</g>
				<path class="st12" d="M1514.63,773.91l-1.98-1.57c-2.9-2.3-3.39-6.55-1.1-9.45l77.76-98.2c2.3-2.9,6.55-3.39,9.45-1.1l1.98,1.57
					c2.9,2.3,3.39,6.55,1.1,9.45l-77.76,98.2C1521.78,775.71,1517.53,776.21,1514.63,773.91z"/>
			</g>
		</g>
		<g>
			<path class="st1" d="M1652.37,1629.99h-15v-2.5h15V1629.99z M1622.37,1629.99h-15v-2.5h15V1629.99z M1592.37,1629.99h-15v-2.5h15
				V1629.99z M1562.37,1629.99h-15v-2.5h15V1629.99z M1532.37,1629.99h-15v-2.5h15V1629.99z M1502.37,1629.99h-15v-2.5h15V1629.99z
				 M1472.37,1629.99h-15v-2.5h15V1629.99z M1442.37,1629.99h-15v-2.5h15V1629.99z M1412.37,1629.99h-15v-2.5h15V1629.99z
				 M1382.37,1629.99h-15v-2.5h15V1629.99z M1352.36,1629.99c-5.18-0.05-10.26-0.91-15.11-2.58l0.81-2.36
				c4.6,1.57,9.42,2.4,14.33,2.44L1352.36,1629.99z M1654.17,1629.96l-0.09-2.5c4.9-0.18,9.69-1.14,14.25-2.85l0.88,2.34
				C1664.4,1628.75,1659.35,1629.76,1654.17,1629.96z M1323.73,1620.17c-4.1-3.13-7.65-6.87-10.55-11.12l2.07-1.41
				c2.75,4.03,6.12,7.58,10,10.55L1323.73,1620.17z M1682.51,1619.33l-1.57-1.94c3.8-3.08,7.07-6.72,9.7-10.83l2.1,1.35
				C1689.97,1612.25,1686.52,1616.09,1682.51,1619.33z M1306.67,1595.17c-1.21-4.25-1.82-8.66-1.82-13.13v-2.05h2.5v2.05
				c0,4.23,0.58,8.42,1.72,12.44L1306.67,1595.17z M1698.85,1593.85l-2.42-0.62c0.92-3.64,1.39-7.41,1.39-11.2v-3.37h2.5v3.37
				C1700.32,1586.04,1699.83,1590.01,1698.85,1593.85z M1307.35,1564.99h-2.5v-15h2.5V1564.99z M1700.32,1563.67h-2.5v-15h2.5
				V1563.67z M1307.35,1534.99h-2.5v-15h2.5V1534.99z M1700.32,1533.67h-2.5v-15h2.5V1533.67z M1307.35,1504.99h-2.5v-15h2.5
				V1504.99z M1700.32,1503.67h-2.5v-15h2.5V1503.67z M1307.35,1474.99h-2.5v-15h2.5V1474.99z M1700.32,1473.67h-2.5v-15h2.5
				V1473.67z M1307.35,1444.99h-2.5v-15h2.5V1444.99z M1700.32,1443.67h-2.5v-15h2.5V1443.67z M1307.35,1414.99h-2.5V1405
				c0-1.7,0.09-3.43,0.27-5.13l2.49,0.26c-0.17,1.61-0.26,3.25-0.26,4.86V1414.99z M1700.32,1413.67h-2.5V1405
				c0-2.05-0.14-4.12-0.41-6.15l2.48-0.33c0.29,2.13,0.43,4.31,0.43,6.48V1413.67z M1311.45,1386.12l-2.28-1.04
				c2.14-4.68,5.01-8.97,8.53-12.75l1.83,1.7C1316.19,1377.62,1313.47,1381.68,1311.45,1386.12z M1693.17,1384.96
				c-2.15-4.37-4.99-8.36-8.42-11.85l1.78-1.75c3.62,3.68,6.61,7.89,8.88,12.5L1693.17,1384.96z M1330.99,1365.11l-1.2-2.19
				c4.52-2.48,9.39-4.2,14.46-5.11l0.44,2.46C1339.89,1361.14,1335.28,1362.76,1330.99,1365.11z M1673.04,1364.51
				c-4.35-2.22-9-3.72-13.83-4.45l0.37-2.47c5.1,0.77,10.01,2.35,14.6,4.69L1673.04,1364.51z M1644.42,1359.55h-15v-2.5h15V1359.55z
				 M1614.42,1359.55h-15v-2.5h15V1359.55z M1584.42,1359.55h-15v-2.5h15V1359.55z M1554.42,1359.55h-15v-2.5h15V1359.55z
				 M1524.42,1359.55h-15v-2.5h15V1359.55z M1494.42,1359.55h-15v-2.5h15V1359.55z M1464.42,1359.55h-15v-2.5h15V1359.55z
				 M1434.42,1359.55h-15v-2.5h15V1359.55z M1404.42,1359.55h-15v-2.5h15V1359.55z M1374.42,1359.55h-15v-2.5h15V1359.55z"/>
			<path class="st1" d="M1625.01,1586.66h-319.15c-20.39,0-36.91-16.53-36.91-36.91v-204.06c0-20.39,16.53-36.91,36.91-36.91h319.15
				c20.39,0,36.91,16.53,36.91,36.91v204.06C1661.92,1570.13,1645.4,1586.66,1625.01,1586.66z"/>
			<g>
				<rect x="1337.28" y="1471.09" class="st0" width="42.55" height="86.41"/>
				<rect x="1408.53" y="1473.86" class="st0" width="42.55" height="83.64"/>
				<rect x="1479.79" y="1430.17" class="st0" width="42.55" height="127.33"/>
				<rect x="1551.05" y="1392.82" class="st0" width="42.55" height="164.68"/>
			</g>
			<rect x="1351.28" y="1347.91" class="st0" width="228.31" height="9.98"/>
		</g>
		<g>
			<g>
				<g>
					<path class="st8" d="M656.13,1037.49c-7.23-25.08-22.55-47.07-43.56-62.56l-8.44-6.22l7.16,148.24l55.4-42.86L656.13,1037.49z"
						/>
					<path class="st14" d="M834.16,1216.67l-12.31-24.1c-3.12-6.1-8.65-10.62-15.26-12.45l-36.21-10.03l-93.16-59.48l-10.53-36.51
						l-55.4,42.86l0.5,10.41c1.01,20.89,13.82,39.37,33.02,47.66l90.46,39.02l43,0.96c13.85,4.78,18.63,16.72,27.23,12.42
						c3.2-1.6-9.32-22.22-9.32-22.22l20.78,22.93L834.16,1216.67z"/>
					
						<rect x="661.72" y="1116.34" transform="matrix(0.6473 -0.7623 0.7623 0.6473 -615.3126 905.8701)" class="st15" width="18.81" height="2.87"/>
				</g>
				<g>
					<path class="st16" d="M672.13,1276.71l67.78-5.98c44.12-3.9,82.5,31.73,84.65,78.58l15.32,333.81l-93.5,2.91L672.13,1276.71z"
						/>
					<g>
						<polygon class="st12" points="753.9,1682.71 756.76,1774.92 895.31,1774.92 826.99,1718.07 822.69,1673.64 						"/>
						
							<rect x="794.03" y="1726.43" transform="matrix(0.7922 -0.6103 0.6103 0.7922 -886.5484 855.2307)" class="st0" width="36.79" height="5.73"/>
					</g>
				</g>
				<g>
					<g>
						<polygon class="st10" points="722.37,1682.71 725.23,1774.92 863.78,1774.92 795.46,1718.07 791.16,1673.64 						"/>
						
							<rect x="762.5" y="1726.43" transform="matrix(0.7922 -0.6103 0.6103 0.7922 -893.1017 835.9869)" class="st0" width="36.79" height="5.73"/>
					</g>
					<path class="st11" d="M825.56,1691.79H710.9l-81.72-251.45l-11.44-35.2l-163.39-0.72c-10.09-0.14-19.75-4.82-27.95-11.72
						c-17.37-14.65-25.37-37.67-22.22-60.17l14.33-102.25l242.74,31.56c46.04,5.99,83.21,40.45,92.67,85.88L825.56,1691.79z"/>
					<polygon class="st12" points="651.42,1405.14 629.18,1440.34 617.74,1405.14 					"/>
				</g>
				<g>
					<path class="st8" d="M621.41,1211.77c-1.18,4.73-2.41,9.46-3.67,14.22l-8.6,35.11l-113.23-4.7l-81.52-3.38
						c-21.61-0.89-37.26-20.95-32.85-42.14l38.01-182.91c4.87-31.1,30.13-55.04,61.46-58.28l93.02-9.57l30.1,8.6
						c29.38,15.77,29.41,44.34,30.81,63.06C641.1,1113.7,633.5,1163.32,621.41,1211.77z"/>
					<path class="st17" d="M544.64,1205.92c-1.18,4.73,74.36,15.31,73.1,20.07l-8.6,35.11l-113.23-4.7
						c-39.56-29.84-54.38-94.77-68.8-176.12L544.64,1205.92z"/>
					<path class="st12" d="M522.14,1013.03c4.96,5.32,10.61,9.95,16.92,13.41c6.29,3.46,13.13,5.99,20.22,6.83
						c7.01,0.92,14.42,0.32,20.57-3.02c6.29-3.13,10.3-9.74,11.05-16.9l1.12,0.07c-0.04,3.74-0.98,7.54-2.85,10.91
						c-1.88,3.37-4.75,6.16-8.09,8.09c-6.74,3.9-14.73,4.6-22.17,3.66c-7.48-1.04-14.68-3.65-21.07-7.55
						c-6.43-3.83-12.05-8.93-16.57-14.79L522.14,1013.03z"/>
					<path class="st12" d="M637.44,1124.78l-2.14-0.15c2.06-28.84-0.03-64.28-6.2-105.35l2.13-0.32
						C637.42,1060.18,639.51,1095.78,637.44,1124.78z"/>
				</g>
				<g>
					<rect x="723.32" y="1226.46" class="st12" width="106.54" height="21.02"/>
					<polygon class="st1" points="1014.27,1247.48 800.24,1247.48 898.66,1059.25 1112.69,1059.25 					"/>
				</g>
				<g>
					<path class="st12" d="M545.72,809.63c-25.08-24.72-72.38-14.33-71.66,27.23c-51.6,13.62-54.46,70.23-33.68,99.25l17.92,1.43
						l3.94-21.14l10.39,21.5l50.16,3.22L545.72,809.63z"/>
					<path class="st14" d="M587.64,902.07v78.97c0,0.72-0.03,1.4-0.09,2.09c-1.23,16.25-16.97,27.75-33.05,23.59
						c-23.71-6.13-40.19-27.58-39.99-52.06l0.4-52.6H587.64z"/>
					<path class="st12" d="M587.64,936.21v44.83c0,0.72-0.03,1.4-0.09,2.09c-21.13-3.47-45.55-27.92-51.51-54.55L587.64,936.21z"/>
					<path class="st14" d="M630.38,907.92c-1.09,6.28-2.55,12.7-4.5,18.8c-6.31,20.04-17.63,36.66-37.9,33.77
						c-47.64-6.82-74.16-55.9-74.16-55.9l32.59-37.26l21.87-29.41l65.56,28.32C633.85,866.24,634.19,886.28,630.38,907.92z"/>
					<path class="st12" d="M527.92,892.04c20.91-0.67,37.08-11.32,43.95-41.56c0,0,48.73,42.04,72.62,19.59
						c20-18.8-13.93-62.06-70.1-67.22c-20.46-1.88-40.86,4.51-56.89,17.36c-27.22,21.81-29.83,72.55-4.38,90.11L527.92,892.04z"/>
					<path class="st8" d="M503.44,839.01c-1.37-4.94-0.35-10.41,1.86-15.13c2.24-4.74,5.69-8.88,9.81-12.08
						c4.12-3.21,8.96-5.5,14.04-6.57c5.07-1.04,10.45-0.88,15.13,1.16c-4.84,1.56-9.02,3.21-12.96,5.24
						c-3.93,2.01-7.55,4.34-10.95,6.96c-3.39,2.63-6.54,5.55-9.37,8.86C508.15,830.79,505.65,834.44,503.44,839.01z"/>
					<g>
						
							<ellipse transform="matrix(0.9284 -0.3716 0.3716 0.9284 -295.3849 257.9795)" class="st14" cx="521.65" cy="895.39" rx="16.3" ry="19.7"/>
						<path class="st12" d="M521.65,906.21c0.36-3.49,0.38-6.8-0.63-9.83c-0.99-3.05-2.92-5.71-5.15-8.44l0.7-0.87
							c3.24,1.69,5.99,4.71,7.16,8.44c1.18,3.73,0.67,7.79-1.01,11.03L521.65,906.21z"/>
					</g>
					<g>
						<path class="st12" d="M599.95,895.64c0,2.96-2.17,5.36-4.84,5.36c-2.67,0-4.84-2.4-4.84-5.36c0-2.96,2.17-5.36,4.84-5.36
							C597.78,890.28,599.95,892.68,599.95,895.64z"/>
						<path class="st12" d="M625.37,899.86c-0.32,2.61-2.5,4.5-4.86,4.21c-2.36-0.29-4.02-2.65-3.7-5.26
							c0.32-2.61,2.5-4.5,4.86-4.21C624.04,894.89,625.69,897.24,625.37,899.86z"/>
						<path class="st12" d="M599.71,882.19c0.19,2.5-3.81,2.74-9.71,2.92c-5.9,0.18-9.98,2-10.02,0.42s4.32-5.65,10.14-6.63
							C596.11,877.87,599.47,879.21,599.71,882.19z"/>
						<path class="st12" d="M618.56,884.6c-0.43,2.47,2.51,3.1,6.87,3.87c4.36,0.76,7.18,2.98,7.4,1.42s-2.55-6.04-6.76-7.6
							C621.73,880.67,619.08,881.66,618.56,884.6z"/>
						<path class="st12" d="M611.54,904.31c1.12,1.37,2.36,2.55,3.64,3.77l1.93,1.8c0.67,0.61,1.39,1.27,2.04,2.28
							c0.32,0.51,0.57,1.17,0.61,1.91c0.06,0.75-0.18,1.47-0.48,2.03c-0.66,1.11-1.45,1.76-2.31,2.33
							c-1.71,1.13-3.57,1.59-5.36,1.94l-0.42-1.04c1.54-1,3.08-1.89,4.27-2.92c0.57-0.51,1.13-1.13,1.33-1.6
							c0.22-0.48,0.16-0.64-0.11-1.2c-0.64-1.04-2.26-2.44-3.32-3.89c-1.16-1.44-2.2-3.08-2.82-4.88L611.54,904.31z"/>
						<path class="st12" d="M587.28,921.95c2.93,3.34,5.98,6.43,9.65,8.4c3.64,2.02,7.8,2.59,12.19,2.11l0.3,1.08
							c-2.12,0.94-4.51,1.45-6.93,1.31c-2.42-0.1-4.81-0.83-6.91-2c-4.23-2.35-7.35-6.15-9.23-10.3L587.28,921.95z"/>
						<circle class="st18" cx="570.09" cy="907.08" r="11.83"/>
						<path class="st18" d="M630.38,907.92c-1.09,6.28-2.55,12.7-4.5,18.8c-1.83-2.09-2.95-4.82-2.95-7.83
							C622.93,913.91,626.02,909.67,630.38,907.92z"/>
					</g>
				</g>
				<g>
					<g>
						<polygon class="st8" points="495.44,1047.78 427.12,1080.27 448.54,1131.06 520.18,1098.03 						"/>
						<path class="st13" d="M748.5,1223.94c-1.89-0.95-3.08-1.58-3.08-1.58l0.68-1.35c0,0,1.26,0.61,3.09,1.59L748.5,1223.94z"/>
						<path class="st14" d="M776.83,1231c-2.21,4.36-19.12-3.35-27-7.22c6.11,3.38,16.63,10.03,11.95,13.67
							c-3.76,2.9-12.07-3.27-39.3-14.56c4.13,1.95,28.46,13.53,22.33,17.92c-6.68,4.76-35.34-5.73-35.34-5.73l-24.85,13.36h-28.66
							l-103.14,0.66c-6.48,0.03-12.9-0.8-19.12-2.41c-12.24-3.12-23.76-9.2-33.54-17.37c-6.16-5.16-11.47-11.21-15.91-17.86
							c-3.32-4.99-6.16-10.35-8.51-15.94l-27.2-64.44l71.63-33.05l37.38,75.88l123.26,26.77l34.4-8.6
							c7.4-1.86,17.86,1.26,24.37,5.25C755.45,1207.04,778.89,1226.84,776.83,1231z"/>
					</g>
					<path class="st18" d="M535.56,1236.02c0,3.76-0.66,7.34-1.86,10.66c-12.24-3.12-23.76-9.2-33.54-17.37
						c-6.16-5.16-11.47-11.21-15.91-17.86c5.42-4.36,12.3-6.97,19.78-6.97C521.45,1204.49,535.56,1218.59,535.56,1236.02z"/>
					<path class="st15" d="M680.63,1200.13c8.55-2.84,17.21-5.29,26.05-7.14c4.42-0.91,8.89-1.65,13.45-1.92
						c2.28-0.13,4.59-0.08,6.92,0.18c1.15,0.23,2.3,0.53,3.45,0.8c1.09,0.39,2.16,0.83,3.24,1.24c8.39,3.8,15.69,9.24,22.76,14.83
						c7.06,5.63,13.73,11.68,20.21,17.98l0.3,0.29l0.06,0.37c0.23,1.36,0.07,2.61-0.68,3.88c-0.46,0.53-0.94,1.12-1.56,1.37
						c-0.6,0.38-1.2,0.53-1.79,0.62c-2.38,0.39-4.45-0.1-6.44-0.63c-3.99-1.1-7.54-2.92-11.13-4.67c-3.51-1.88-6.97-3.83-10.32-5.93
						c-3.41-2.02-6.65-4.28-9.97-6.43l1.52-2.42c5.86,3.48,11.57,7.13,17.02,11.27c2.71,2.1,5.39,4.25,7.69,7.06
						c0.55,0.75,1.11,1.5,1.49,2.52c0.21,0.48,0.33,1.09,0.34,1.75c-0.05,0.69-0.27,1.42-0.74,1.96c-0.9,1.04-1.99,1.4-2.91,1.62
						c-0.96,0.25-1.85,0.3-2.76,0.39l-0.28,0.03l-0.31-0.13l-31.12-13.04l0.93-2.19c4.9,2.26,9.67,4.69,14.22,7.68
						c2.22,1.59,4.55,3.02,6.19,5.76c0.37,0.69,0.64,1.75,0.26,2.74c-0.39,0.96-1.15,1.57-1.85,1.9c-1.44,0.73-2.89,0.88-4.28,0.96
						c-5.58,0.13-10.82-1.18-16.01-2.46c-5.18-1.37-10.28-2.98-15.31-4.81l0.38-1.05c5.03,1.68,10.15,3.17,15.3,4.4
						c5.14,1.15,10.43,2.29,15.54,2.03c2.44-0.1,5.34-1.17,4.16-2.78c-1.12-1.88-3.43-3.48-5.55-4.89c-4.4-2.81-9.19-5.17-13.99-7.3
						l0.93-2.19l31.23,12.76l-0.59-0.1c0.77-0.09,1.56-0.13,2.24-0.33c0.7-0.15,1.27-0.46,1.46-0.7c0.44-0.17-0.15-1.71-1.13-2.87
						c-1.98-2.41-4.6-4.54-7.23-6.55c-5.31-4-11.01-7.62-16.77-10.99l1.52-2.42c3.3,2.11,6.49,4.39,9.85,6.39
						c3.31,2.09,6.69,4.02,10.12,5.87c3.46,1.71,6.96,3.5,10.58,4.51c1.78,0.51,3.67,0.87,5.18,0.61l0.55-0.1
						c0.17-0.05,0.27-0.15,0.42-0.21c0.33-0.1,0.43-0.36,0.66-0.52c0.28-0.43,0.4-1.23,0.31-1.81l0.36,0.66
						c-6.34-6.25-13.02-12.25-19.9-17.92c-6.9-5.62-14.1-11.07-22.04-14.79l-3.03-1.2c-1.03-0.25-2.06-0.54-3.1-0.77
						c-2.13-0.27-4.32-0.34-6.52-0.25c-4.41,0.18-8.83,0.79-13.22,1.6c-8.78,1.63-17.47,3.88-26.02,6.51L680.63,1200.13z"/>
					<polygon class="st12" points="448.98,1132.05 448.08,1130.1 518.76,1097.49 489.32,1028.59 491.3,1027.74 521.56,1098.56 					
						"/>
				</g>
			</g>
			<g>
				<rect x="455.34" y="1433.81" class="st12" width="3.75" height="322.96"/>
				<path class="st10" d="M547.51,1448.14H366.92c-12.27,0-22.22-9.95-22.22-22.22l0,0c0-12.27,9.95-22.22,22.22-22.22h180.59
					c12.27,0,22.22,9.95,22.22,22.22l0,0C569.73,1438.19,559.78,1448.14,547.51,1448.14z"/>
				<path class="st10" d="M533.18,1777.79H381.25v-3.67c0-18.45,14.96-33.4,33.4-33.4h85.12c18.45,0,33.4,14.96,33.4,33.4V1777.79z"
					/>
			</g>
			<g>
				<g>
					
						<rect x="832.28" y="1221.94" transform="matrix(0.8458 -0.5336 0.5336 0.8458 -683.3772 679.8327)" class="st12" width="3.75" height="599.9"/>
					
						<rect x="534.21" y="1520.02" transform="matrix(0.5338 -0.8456 0.8456 0.5338 -898.0479 1414.9127)" class="st12" width="599.9" height="3.75"/>
				</g>
				<rect x="553.72" y="1247.48" class="st10" width="560.88" height="42.3"/>
			</g>
		</g>
		<g>
			<path class="st1" d="M600.74,573.11c-64.63,0-117.21-52.58-117.21-117.21c0-64.63,52.58-117.21,117.21-117.21
				c64.63,0,117.21,52.58,117.21,117.21C717.95,520.53,665.37,573.11,600.74,573.11z M600.74,341.18
				c-63.25,0-114.71,51.46-114.71,114.71c0,63.25,51.46,114.71,114.71,114.71s114.71-51.46,114.71-114.71
				C715.45,392.64,663.99,341.18,600.74,341.18z"/>
			<g>
				<circle class="st2" cx="680" cy="409.97" r="127.53"/>
				<polygon class="st12" points="680.05,412.38 609.34,356.96 611.66,354.01 679.95,407.55 718.04,375.3 720.46,378.16 				"/>
			</g>
		</g>
		<g>
			<g>
				<path class="st0" d="M349.05,685h-64.76c-10.42,0-18.87,8.45-18.87,18.87v64.76c0,10.42,8.45,18.87,18.87,18.87h46.22
					l19.91,27.5v-27.57c9.78-0.7,17.5-8.84,17.5-18.8v-64.76C367.92,693.45,359.47,685,349.05,685z"/>
				<path class="st1" d="M351.67,818.86l-21.8-30.11h-45.58c-11.09,0-20.12-9.03-20.12-20.12v-64.76c0-11.09,9.03-20.12,20.12-20.12
					h64.76c11.09,0,20.12,9.03,20.12,20.12v64.76c0,10.1-7.6,18.63-17.5,19.93V818.86z M284.29,686.25
					c-9.72,0-17.62,7.9-17.62,17.62v64.76c0,9.72,7.9,17.62,17.62,17.62h46.86l18.02,24.89v-24.88l1.16-0.08
					c9.16-0.66,16.34-8.37,16.34-17.55v-64.76c0-9.72-7.9-17.62-17.62-17.62H284.29z"/>
			</g>
			<polygon class="st1" points="315.34,769.58 289.42,732.14 295.58,727.86 314.66,755.42 343.39,704 349.94,707.66 			"/>
		</g>
		<rect x="240" y="1774.04" class="st12" width="1536.44" height="3.75"/>
	</g>
</g>
</svg>
